# xmcd database file
#
# Track frame offsets:
# 150
# 12747
# 28525
# 42739
# 59461
# 73083
# 89539
# 107016
# 116031
# 128886
# 151871
# 170816
# 185294
# 204311
#
# Disc length: 2906 seconds
#
# Revision: 0
# Processed by: cddbd v1.5PL3 Copyright (c) Steve Scherf et al.
# Submitted via: CD-Runner 2004.04
#
DISCID=ca0b580e
DTITLE=Andy Cohen and Larkin Bryant - Mississippi Heavy Water Blues
DYEAR=2002
DGENRE=Blues
TTITLE0=Squabblin' Blues
TTITLE1=Frankie Jean
TTITLE2=Cool Iron Bed
TTITLE3=Jitterbug Swing
TTITLE4=Mamie
TTITLE5=The Man I Love
TTITLE6=Mississippi Heavy Water Blues
TTITLE7=Panhead Blues
TTITLE8=Keep Your Arms Around Me, Papa
TTITLE9=Talkin' Casey
TTITLE10=Wee Midnight Hour
TTITLE11=It Won't Be Long
TTITLE12=Rock Me, Papa
TTITLE13=Dog Day Blues
EXTD=
EXTT0=Barner - LaRose
EXTT1=Memphis Minnie
EXTT2=Big Jack Kelley
EXTT3=Bukka White
EXTT4=Ted Bogan
EXTT5=Memphis Minnie
EXTT6=Barbecue Bob
EXTT7=
EXTT8=Arthur Crudup
EXTT9=Mississippi John Hurt
EXTT10=Leroy Carr
EXTT11=Frank Stokes
EXTT12=Arthur Crudup
EXTT13=
PLAYORDER=
